<?xml version="1.0" encoding="UTF-8"?>
<svg width="40px" height="40px" viewBox="0 0 40 40" version="1.1" xmlns="http://www.w3.org/2000/svg" xmlns:xlink="http://www.w3.org/1999/xlink">
    <title>CPO@1x</title>
    <g id="页面-1" stroke="none" stroke-width="1" fill="none" fill-rule="evenodd">
        <g id="画板" transform="translate(-82, -149)" fill-rule="nonzero">
            <g id="CPO@1x" transform="translate(82, 149)">
                <path d="M11.588,15.264 C10.22,15.264 9.176,15.708 8.456,16.62 C7.82,17.412 7.508,18.456 7.508,19.728 C7.508,21.024 7.808,22.056 8.42,22.824 C9.116,23.712 10.184,24.168 11.612,24.168 C12.536,24.168 13.328,23.904 13.988,23.376 C14.696,22.812 15.14,22.032 15.332,21.024 L13.964,21.024 C13.796,21.672 13.508,22.164 13.1,22.488 C12.716,22.776 12.212,22.932 11.6,22.932 C10.664,22.932 9.968,22.632 9.524,22.056 C9.116,21.516 8.912,20.736 8.912,19.728 C8.912,18.744 9.116,17.976 9.536,17.424 C9.992,16.8 10.664,16.5 11.564,16.5 C12.164,16.5 12.656,16.62 13.04,16.884 C13.436,17.148 13.7,17.556 13.844,18.12 L15.212,18.12 C15.08,17.256 14.708,16.56 14.084,16.056 C13.436,15.528 12.596,15.264 11.588,15.264 Z M28.316,15.264 C26.996,15.264 25.964,15.684 25.22,16.548 C24.5,17.364 24.152,18.42 24.152,19.728 C24.152,21.024 24.5,22.08 25.22,22.896 C25.964,23.736 26.996,24.168 28.316,24.168 C29.624,24.168 30.656,23.748 31.412,22.908 C32.132,22.104 32.492,21.048 32.492,19.728 C32.492,18.408 32.132,17.34 31.412,16.536 C30.656,15.684 29.624,15.264 28.316,15.264 Z M20.204,15.432 L16.652,15.432 L16.652,24 L18.056,24 L18.056,20.712 L20.18,20.712 C22.268,20.712 23.312,19.824 23.312,18.06 C23.312,16.308 22.268,15.432 20.204,15.432 Z M28.316,16.5 C29.204,16.5 29.888,16.776 30.368,17.352 C30.836,17.928 31.076,18.72 31.076,19.728 C31.076,20.736 30.836,21.516 30.368,22.08 C29.888,22.644 29.204,22.932 28.316,22.932 C27.428,22.932 26.732,22.632 26.252,22.044 C25.784,21.468 25.556,20.7 25.556,19.728 C25.556,18.744 25.784,17.976 26.252,17.4 C26.744,16.8 27.428,16.5 28.316,16.5 Z M20.096,16.632 C20.708,16.632 21.164,16.74 21.452,16.968 C21.74,17.184 21.896,17.544 21.896,18.06 C21.896,18.576 21.752,18.948 21.464,19.176 C21.176,19.392 20.72,19.512 20.096,19.512 L18.056,19.512 L18.056,16.632 L20.096,16.632 Z" id="CPO"></path>
            </g>
        </g>
    </g>
</svg>