<?xml version="1.0" encoding="UTF-8"?>
<svg width="40px" height="40px" viewBox="0 0 40 40" version="1.1" xmlns="http://www.w3.org/2000/svg" xmlns:xlink="http://www.w3.org/1999/xlink">
    <title>eMSP@1x</title>
    <g id="页面-1" stroke="none" stroke-width="1" fill="none" fill-rule="evenodd">
        <g id="画板" transform="translate(-82, -216)" fill-rule="nonzero">
            <g id="eMSP@1x" transform="translate(82, 216)">
                <path d="M6.704,17.628 C5.78,17.628 5.048,17.94 4.52,18.576 C3.968,19.2 3.704,19.968 3.704,20.892 C3.704,21.924 3.992,22.728 4.568,23.316 C5.108,23.88 5.84,24.168 6.764,24.168 C7.592,24.168 8.276,23.928 8.828,23.46 C9.26,23.076 9.548,22.584 9.692,22.008 L8.324,22.008 C8.156,22.356 7.976,22.608 7.772,22.764 C7.508,22.956 7.172,23.052 6.752,23.052 C6.26,23.052 5.876,22.896 5.612,22.596 C5.348,22.296 5.192,21.852 5.144,21.276 L9.788,21.276 C9.788,20.16 9.536,19.284 9.044,18.66 C8.504,17.964 7.724,17.628 6.704,17.628 Z M24.848,15.264 C23.924,15.264 23.168,15.468 22.568,15.888 C21.92,16.32 21.608,16.92 21.608,17.676 C21.608,18.432 21.932,19.008 22.592,19.404 C22.844,19.548 23.504,19.788 24.56,20.124 C25.508,20.412 26.06,20.604 26.228,20.688 C26.756,20.952 27.032,21.312 27.032,21.768 C27.032,22.128 26.84,22.404 26.48,22.62 C26.12,22.824 25.616,22.932 24.992,22.932 C24.284,22.932 23.768,22.8 23.432,22.56 C23.06,22.284 22.832,21.816 22.736,21.168 L21.344,21.168 C21.404,22.26 21.8,23.052 22.52,23.556 C23.108,23.964 23.936,24.168 24.992,24.168 C26.084,24.168 26.936,23.94 27.536,23.508 C28.136,23.064 28.436,22.452 28.436,21.684 C28.436,20.892 28.064,20.28 27.32,19.836 C26.984,19.644 26.24,19.356 25.076,18.996 C24.284,18.744 23.792,18.564 23.612,18.468 C23.204,18.252 23.012,17.952 23.012,17.592 C23.012,17.184 23.18,16.884 23.54,16.704 C23.828,16.548 24.236,16.476 24.776,16.476 C25.4,16.476 25.88,16.584 26.192,16.824 C26.504,17.052 26.732,17.436 26.852,17.964 L28.244,17.964 C28.16,17.028 27.812,16.332 27.212,15.888 C26.648,15.468 25.856,15.264 24.848,15.264 Z M12.632,15.432 L10.988,15.432 L10.988,24 L12.392,24 L12.392,18.096 L12.44,18.096 L14.96,24 L16.172,24 L18.692,18.096 L18.74,18.096 L18.74,24 L20.144,24 L20.144,15.432 L18.5,15.432 L15.596,22.152 L15.548,22.152 L12.632,15.432 Z M33.188,15.432 L29.636,15.432 L29.636,24 L31.04,24 L31.04,20.712 L33.164,20.712 C35.252,20.712 36.296,19.824 36.296,18.06 C36.296,16.308 35.252,15.432 33.188,15.432 Z M6.74,18.744 C7.7,18.744 8.24,19.236 8.36,20.244 L5.168,20.244 C5.252,19.752 5.42,19.38 5.672,19.128 C5.936,18.864 6.284,18.744 6.74,18.744 Z M33.08,16.632 C33.692,16.632 34.148,16.74 34.436,16.968 C34.724,17.184 34.88,17.544 34.88,18.06 C34.88,18.576 34.736,18.948 34.448,19.176 C34.16,19.392 33.704,19.512 33.08,19.512 L31.04,19.512 L31.04,16.632 L33.08,16.632 Z" id="eMSP" fill="#FFFFFF"></path>
            </g>
        </g>
    </g>
</svg>