<?xml version="1.0" encoding="UTF-8"?>
<svg width="40px" height="40px" viewBox="0 0 40 40" version="1.1" xmlns="http://www.w3.org/2000/svg" xmlns:xlink="http://www.w3.org/1999/xlink">
    <title>SAAS@1x</title>
    <g id="页面-1" stroke="none" stroke-width="1" fill="none" fill-rule="evenodd">
        <g id="画板" transform="translate(-82, -63)" fill-rule="nonzero">
            <g id="SAAS@1x" transform="translate(82, 63)">
                <path d="M7.904,15.264 C6.98,15.264 6.224,15.468 5.624,15.888 C4.976,16.32 4.664,16.92 4.664,17.676 C4.664,18.432 4.988,19.008 5.648,19.404 C5.9,19.548 6.56,19.788 7.616,20.124 C8.564,20.412 9.116,20.604 9.284,20.688 C9.812,20.952 10.088,21.312 10.088,21.768 C10.088,22.128 9.896,22.404 9.536,22.62 C9.176,22.824 8.672,22.932 8.048,22.932 C7.34,22.932 6.824,22.8 6.488,22.56 C6.116,22.284 5.888,21.816 5.792,21.168 L4.4,21.168 C4.46,22.26 4.856,23.052 5.576,23.556 C6.164,23.964 6.992,24.168 8.048,24.168 C9.14,24.168 9.992,23.94 10.592,23.508 C11.192,23.064 11.492,22.452 11.492,21.684 C11.492,20.892 11.12,20.28 10.376,19.836 C10.04,19.644 9.296,19.356 8.132,18.996 C7.34,18.744 6.848,18.564 6.668,18.468 C6.26,18.252 6.068,17.952 6.068,17.592 C6.068,17.184 6.236,16.884 6.596,16.704 C6.884,16.548 7.292,16.476 7.832,16.476 C8.456,16.476 8.936,16.584 9.248,16.824 C9.56,17.052 9.788,17.436 9.908,17.964 L11.3,17.964 C11.216,17.028 10.868,16.332 10.268,15.888 C9.704,15.468 8.912,15.264 7.904,15.264 Z M32.012,15.264 C31.088,15.264 30.332,15.468 29.732,15.888 C29.084,16.32 28.772,16.92 28.772,17.676 C28.772,18.432 29.096,19.008 29.756,19.404 C30.008,19.548 30.668,19.788 31.724,20.124 C32.672,20.412 33.224,20.604 33.392,20.688 C33.92,20.952 34.196,21.312 34.196,21.768 C34.196,22.128 34.004,22.404 33.644,22.62 C33.284,22.824 32.78,22.932 32.156,22.932 C31.448,22.932 30.932,22.8 30.596,22.56 C30.224,22.284 29.996,21.816 29.9,21.168 L28.508,21.168 C28.568,22.26 28.964,23.052 29.684,23.556 C30.272,23.964 31.1,24.168 32.156,24.168 C33.248,24.168 34.1,23.94 34.7,23.508 C35.3,23.064 35.6,22.452 35.6,21.684 C35.6,20.892 35.228,20.28 34.484,19.836 C34.148,19.644 33.404,19.356 32.24,18.996 C31.448,18.744 30.956,18.564 30.776,18.468 C30.368,18.252 30.176,17.952 30.176,17.592 C30.176,17.184 30.344,16.884 30.704,16.704 C30.992,16.548 31.4,16.476 31.94,16.476 C32.564,16.476 33.044,16.584 33.356,16.824 C33.668,17.052 33.896,17.436 34.016,17.964 L35.408,17.964 C35.324,17.028 34.976,16.332 34.376,15.888 C33.812,15.468 33.02,15.264 32.012,15.264 Z M16.724,15.432 L15.128,15.432 L11.852,24 L13.352,24 L14.132,21.852 L17.72,21.852 L18.5,24 L20,24 L16.724,15.432 Z M24.872,15.432 L23.276,15.432 L20,24 L21.5,24 L22.28,21.852 L25.868,21.852 L26.648,24 L28.148,24 L24.872,15.432 Z M15.956,16.944 L17.3,20.7 L14.552,20.7 L15.908,16.944 L15.956,16.944 Z M24.104,16.944 L25.448,20.7 L22.7,20.7 L24.056,16.944 L24.104,16.944 Z" id="SAAS"></path>
            </g>
        </g>
    </g>
</svg>