<?xml version="1.0" standalone="no"?><!DOCTYPE svg PUBLIC "-//W3C//DTD SVG 1.1//EN" "http://www.w3.org/Graphics/SVG/1.1/DTD/svg11.dtd"><svg t="1723001052612" class="icon" viewBox="0 0 1024 1024" version="1.1" xmlns="http://www.w3.org/2000/svg" p-id="10140" xmlns:xlink="http://www.w3.org/1999/xlink" width="200" height="200"><path d="M310.49459433 190.320627c0-15.95436701-13.05329399-29.007661-29.007661-29.007661l-71.167876 0c-15.95436701 0-29.007661 13.05329399-29.007661 29.007661l0 643.973754c0 15.95436701 13.05329399 29.007661 29.007661 29.007661l71.167876 0c15.95436701 0 29.007661-13.05329399 29.007661-29.007661L310.49459433 190.320627z" fill="#3D3B4F" p-id="10141"></path><path d="M414.00610933 834.295404c0 15.95436701 10.468422 21.211091 23.263843 11.682064l425.215448-316.65187001c12.795421-9.529027 12.795421-25.122167 0-34.65017099l-425.215448-316.650847c-12.795421-9.529027-23.263843-4.272303-23.263843 11.682064L414.00610933 834.295404z" fill="#3D3B4F" p-id="10142"></path></svg>