<?xml version="1.0" standalone="no"?><!DOCTYPE svg PUBLIC "-//W3C//DTD SVG 1.1//EN" "http://www.w3.org/Graphics/SVG/1.1/DTD/svg11.dtd"><svg class="icon" width="200px" height="196.73px" viewBox="0 0 1041 1024" version="1.1" xmlns="http://www.w3.org/2000/svg"><path d="M822.951374 406.121925L619.354839 202.426939c-11.223407-11.223407-11.026505-29.732183 0.492254-41.349394 5.414801-5.414801 12.306367-8.269879 19.197933-8.762133L878.18235 114.805606c15.949052-2.461273 30.51979 8.36833 32.587259 24.317381 0.393804 2.756626 0.393804 5.513252-0.098451 8.171427L872.669097 388.991462c-2.461273 15.850601-17.425816 27.172458-33.276416 25.104989-6.596213-0.787607-12.207916-3.741136-16.441307-7.974526z m0 0M76.168536 910.89858l124.262802-124.261818 34.807329 34.807329-124.262803 124.261818zM250.478872 736.525236l124.262802-124.261818 34.807328 34.807328-124.261818 124.261818zM424.790192 562.291692l124.262802-124.262803 34.807329 34.807329-124.262803 124.262802zM599.101512 387.918347l124.261818-124.262802 34.807329 34.807328-124.261818 124.262803z" /></svg>