<svg xmlns="http://www.w3.org/2000/svg" xmlns:xlink="http://www.w3.org/1999/xlink" width="296px" height="73px" viewBox="0 0 296 73">
  <title>ioc_logo_长横</title>
  <g id="&#x9875;&#x9762;-1" stroke="none" stroke-width="1" fill="none" fill-rule="evenodd">
    <g id="&#x53A6;&#x95E8;&#x94F6;&#x6CB3;logo(&#x65B0;&#x54C1;&#x724C;&#x8272;)_&#x753B;&#x677F;-1" transform="translate(-545.4035, -170.6)">
      <g id="ioc_logo_&#x957F;&#x6A2A;" transform="translate(545.9135, 170.87)">
        <path d="M8.07,0 C12.52,0 16.14,3.63 16.14,8.07 C16.14,12.52 12.51,16.14 8.07,16.14 C3.62,16.14 0,12.51 0,8.07 C0,3.63 3.62,0 8.07,0 L8.07,0 Z M1.06,20.64 L14.77,20.64 L14.77,53.92 L1.06,53.92 L1.06,20.64 L1.06,20.64 Z M59.9,10.76 C67.59,10.76 74.39,14.68 78.4,20.63 L69.9,28.89 C68.26,24.98 64.39,22.22 59.9,22.22 C53.93,22.22 49.07,27.09 49.07,33.05 C49.07,39.02 53.94,43.88 59.9,43.88 C63.78,43.88 67.2,41.82 69.11,38.74 L69.11,53.35 C66.3,54.63 63.18,55.35 59.9,55.35 C56.34,55.35 52.98,54.51 49.99,53.02 C48.31,63.66 39.06,71.84 27.96,71.84 C20.7,71.84 14.23,68.34 10.16,62.94 L18.41,54.65 C20.24,58.05 23.84,60.38 27.96,60.38 C33.93,60.38 38.79,55.51 38.79,49.55 C38.79,43.58 33.92,38.72 27.96,38.72 C24.01,38.72 20.54,40.85 18.65,44.03 L18.67,29.29 C21.5,27.98 24.65,27.25 27.97,27.25 C31.53,27.25 34.89,28.09 37.88,29.58 C39.56,18.94 48.8,10.76 59.9,10.76 L59.9,10.76 Z" id="&#x5F62;&#x72B6;" fill="#32D9D1"></path>
        <path d="M94.45,14.07 L94.45,54.76 L83.65,54.76 L83.65,14.07 L94.45,14.07 L94.45,14.07 Z M121.63,33.2 L121.63,41.34 C121.63,44.32 121.47,46.52 121.16,47.91 C120.85,49.3 120.19,50.6 119.16,51.82 C118.14,53.03 116.83,53.92 115.24,54.5 C113.64,55.08 111.79,55.36 109.72,55.36 C107.4,55.36 105.44,55.12 103.83,54.62 C102.22,54.12 100.97,53.38 100.08,52.39 C99.19,51.4 98.55,50.19 98.17,48.78 C97.79,47.37 97.6,45.26 97.6,42.44 L97.6,33.92 C97.6,30.83 97.95,28.42 98.64,26.69 C99.33,24.95 100.58,23.56 102.38,22.51 C104.18,21.46 106.48,20.93 109.28,20.93 C111.64,20.93 113.66,21.27 115.34,21.95 C117.03,22.63 118.33,23.51 119.25,24.59 C120.17,25.68 120.79,26.8 121.14,27.94 C121.46,29.08 121.63,30.84 121.63,33.2 L121.63,33.2 Z M111.14,30.69 C111.14,28.98 111.04,27.91 110.86,27.47 C110.67,27.03 110.26,26.8 109.64,26.8 C109.02,26.8 108.6,27.02 108.4,27.47 C108.19,27.91 108.08,28.98 108.08,30.69 L108.08,45.68 C108.08,47.25 108.19,48.28 108.4,48.75 C108.6,49.23 109.01,49.47 109.61,49.47 C110.24,49.47 110.65,49.25 110.84,48.82 C111.04,48.38 111.14,47.44 111.14,46.02 L111.14,30.69 L111.14,30.69 Z M147.94,34.07 L138.05,34.07 L138.05,30.24 C138.05,28.91 137.93,28 137.71,27.52 C137.48,27.04 137.07,26.8 136.46,26.8 C135.86,26.8 135.45,27.01 135.25,27.43 C135.04,27.85 134.93,28.78 134.93,30.23 L134.93,45.91 C134.93,47.09 135.09,47.98 135.4,48.58 C135.71,49.17 136.17,49.47 136.77,49.47 C137.48,49.47 137.97,49.16 138.21,48.54 C138.46,47.92 138.58,46.75 138.58,45.04 L138.58,41.08 L147.93,41.08 C147.91,43.74 147.81,45.73 147.63,47.06 C147.45,48.39 146.88,49.75 145.89,51.15 C144.92,52.54 143.64,53.6 142.06,54.3 C140.48,55.01 138.54,55.36 136.22,55.36 C133.26,55.36 130.91,54.87 129.19,53.9 C127.46,52.93 126.23,51.56 125.51,49.79 C124.79,48.03 124.44,45.53 124.44,42.29 L124.44,32.85 C124.44,30.02 124.73,27.89 125.32,26.46 C125.91,25.02 127.16,23.75 129.08,22.62 C131,21.49 133.34,20.93 136.09,20.93 C138.83,20.93 141.16,21.49 143.1,22.61 C145.04,23.73 146.32,25.14 146.97,26.84 C147.62,28.54 147.94,30.95 147.94,34.07 L147.94,34.07 Z M161.24,14.21 L161.24,23.32 C162.13,22.52 163.11,21.92 164.15,21.52 C165.19,21.12 166.32,20.92 167.52,20.92 C169.35,20.92 170.91,21.37 172.2,22.27 C173.49,23.18 174.28,24.21 174.56,25.39 C174.84,26.57 174.99,28.72 174.99,31.84 L174.99,54.76 L164.51,54.76 L164.51,31.37 C164.51,29.43 164.4,28.19 164.21,27.63 C164.01,27.08 163.56,26.8 162.87,26.8 C162.23,26.8 161.8,27.09 161.58,27.66 C161.35,28.22 161.24,29.35 161.24,31.05 L161.24,54.76 L150.75,54.76 L150.75,14.21 L161.24,14.21 L161.24,14.21 Z M187.66,34.39 L177.82,34.39 L177.82,32.16 C177.82,29.6 178.13,27.61 178.74,26.22 C179.36,24.83 180.59,23.59 182.44,22.52 C184.29,21.45 186.69,20.92 189.65,20.92 C193.2,20.92 195.87,21.53 197.67,22.73 C199.48,23.94 200.56,25.43 200.92,27.19 C201.28,28.95 201.46,32.58 201.46,38.07 L201.46,54.75 L191.26,54.75 L191.26,51.79 C190.62,52.98 189.79,53.87 188.78,54.46 C187.77,55.06 186.57,55.35 185.16,55.35 C183.33,55.35 181.64,54.85 180.11,53.86 C178.59,52.87 177.82,50.69 177.82,47.34 L177.82,44.6 C177.82,42.11 178.23,40.42 179.04,39.52 C179.85,38.61 181.87,37.56 185.09,36.37 C188.53,35.06 190.37,34.19 190.62,33.74 C190.86,33.29 190.98,32.37 190.98,30.99 C190.98,29.25 190.84,28.12 190.57,27.6 C190.3,27.07 189.86,26.8 189.23,26.8 C188.52,26.8 188.08,27.02 187.91,27.47 C187.73,27.91 187.65,29.06 187.65,30.92 L187.65,34.39 L187.66,34.39 Z M190.98,38.95 C189.3,40.14 188.32,41.13 188.06,41.93 C187.8,42.73 187.66,43.89 187.66,45.38 C187.66,47.1 187.77,48.21 188.01,48.71 C188.24,49.21 188.71,49.46 189.4,49.46 C190.06,49.46 190.48,49.26 190.68,48.87 C190.87,48.48 190.98,47.44 190.98,45.78 L190.98,38.95 L190.98,38.95 Z M247.29,21.52 L247.29,47.12 C247.29,50.58 247.21,52.81 247.05,53.82 C246.88,54.83 246.3,55.9 245.3,57.03 C244.3,58.16 242.9,59.02 241.11,59.61 C239.32,60.2 237.06,60.5 234.34,60.5 C231.01,60.5 228.33,59.95 226.3,58.86 C224.28,57.77 223.24,55.62 223.16,52.41 L233.33,52.41 C233.33,53.87 233.89,54.61 235,54.61 C235.8,54.61 236.32,54.39 236.58,53.93 C236.85,53.49 236.97,52.54 236.97,51.1 L236.97,48.59 C236.08,49.38 235.13,49.97 234.14,50.37 C233.14,50.77 232.1,50.98 231.01,50.98 C229.12,50.98 227.56,50.61 226.35,49.88 C225.13,49.14 224.29,48.18 223.84,46.98 C223.39,45.79 223.17,44.09 223.17,41.88 L223.17,29.81 C223.17,26.66 223.75,24.38 224.93,23 C226.11,21.61 227.9,20.92 230.3,20.92 C231.62,20.92 232.82,21.18 233.9,21.7 C234.98,22.21 235.95,22.99 236.8,24.03 L237.55,21.53 L247.29,21.53 L247.29,21.52 Z M236.78,30.34 C236.78,28.82 236.69,27.85 236.51,27.43 C236.33,27.01 235.93,26.8 235.31,26.8 C234.71,26.8 234.27,27.04 234.03,27.52 C233.78,28 233.65,28.93 233.65,30.34 L233.65,41.5 C233.65,42.99 233.75,43.95 233.94,44.4 C234.13,44.84 234.52,45.06 235.13,45.06 C235.83,45.06 236.27,44.8 236.49,44.26 C236.69,43.73 236.8,42.52 236.8,40.64 L236.8,30.34 L236.78,30.34 Z M274.47,38.73 L260.89,38.73 L260.89,45.92 C260.89,47.42 261,48.39 261.23,48.83 C261.46,49.26 261.89,49.48 262.53,49.48 C263.33,49.48 263.86,49.19 264.12,48.62 C264.39,48.04 264.53,46.93 264.53,45.28 L264.53,40.89 L274.47,40.89 L274.47,43.34 C274.47,45.39 274.33,46.97 274.06,48.08 C273.79,49.18 273.16,50.35 272.18,51.61 C271.19,52.86 269.94,53.8 268.42,54.42 C266.91,55.05 265.01,55.36 262.72,55.36 C260.51,55.36 258.56,55.05 256.86,54.44 C255.17,53.82 253.85,52.98 252.91,51.9 C251.96,50.82 251.31,49.63 250.94,48.34 C250.58,47.04 250.4,45.16 250.4,42.69 L250.4,33 C250.4,30.09 250.81,27.8 251.61,26.13 C252.42,24.45 253.76,23.16 255.61,22.27 C257.46,21.37 259.59,20.93 261.99,20.93 C264.93,20.93 267.36,21.47 269.27,22.55 C271.18,23.63 272.52,25.06 273.29,26.83 C274.06,28.61 274.45,31.1 274.45,34.33 L274.45,38.73 L274.47,38.73 Z M263.95,33.32 L263.95,30.89 C263.95,29.17 263.85,28.06 263.67,27.56 C263.47,27.06 263.08,26.81 262.5,26.81 C261.77,26.81 261.32,27.02 261.15,27.45 C260.97,27.88 260.88,29.02 260.88,30.9 L260.88,33.33 L263.95,33.33 L263.95,33.32 Z M288.06,21.52 L287.96,24.22 C289.48,21.1 291.89,21.1 294.77,20.92 L294.77,30.71 C292.85,30.71 290.92,30.96 290.02,31.46 C289.12,31.96 288.57,32.66 288.36,33.55 C288.15,34.44 288.05,38.4 288.05,41.63 L288.05,54.75 L277.56,54.75 L277.56,21.51 L288.06,21.51 L288.06,21.52 Z M215.14,21.52 L215.04,24.22 C216.56,21.1 218.97,21.1 221.85,20.92 L221.85,30.71 C219.93,30.71 218,30.96 217.1,31.46 C216.2,31.96 215.65,32.66 215.44,33.55 C215.23,34.44 215.13,38.4 215.13,41.63 L215.13,54.75 L204.64,54.75 L204.64,21.51 L215.14,21.51 L215.14,21.52 Z" id="&#x5F62;&#x72B6;" fill="#344767" fill-rule="nonzero"></path>
      </g>
    </g>
  </g>
</svg>